/* XPM */
static char *_2ae6e0b4caf44e4a0606d65be4a9518FOb3j3qsVsyxGvAo[] = {
/* columns rows colors chars-per-pixel */
"100 100 89 1 ",
"  c #928F8A",
". c #928E8B",
"X c #938E8B",
"o c #948F8B",
"O c #938F8C",
"+ c #938F8E",
"@ c #948F8C",
"# c #93908B",
"$ c #91908C",
"% c #92918D",
"& c #94918C",
"* c #94908D",
"= c #95918E",
"- c #94938F",
"; c #96928F",
": c #9A958F",
"> c #9B978E",
", c #979390",
"< c #959490",
"1 c #969591",
"2 c #979691",
"3 c #959492",
"4 c #969593",
"5 c #979692",
"6 c #979694",
"7 c #989491",
"8 c #9B9690",
"9 c #999592",
"0 c #989793",
"q c #9A9792",
"w c #9D9690",
"e c #9C9791",
"r c #9D9592",
"t c #9C9793",
"y c #989795",
"u c #9B9796",
"i c #9B9891",
"p c #999894",
"a c #9A9995",
"s c #9B9A96",
"d c #9E9995",
"f c #9D9A95",
"g c #9F9A94",
"h c #9D9996",
"j c #9C9B97",
"k c #9F9A96",
"l c #9E9B96",
"z c #9E9A97",
"x c #9F9C97",
"c c #9B9A98",
"v c #9C9B99",
"b c #9F9B98",
"n c #9E9A99",
"m c #9D9C98",
"M c #9E9D98",
"N c #9E9D99",
"B c #9F9E9C",
"V c #A09B95",
"C c #A09B97",
"Z c #A09B98",
"A c #A19C98",
"S c #A09D98",
"D c #A09C99",
"F c #A19E99",
"G c #A09F9B",
"H c #A29E9B",
"J c #A09F9D",
"K c #A39F9C",
"L c #A1A09C",
"P c #A2A19D",
"I c #A0A09E",
"U c #A1A09E",
"Y c #A1A19F",
"T c #A2A19F",
"R c #A3A29E",
"E c #A4A19C",
"W c #A4A09D",
"Q c #A5A09D",
"! c #A5A19E",
"~ c #A4A09F",
"^ c gray63",
"/ c #A2A0A1",
"( c #A3A2A0",
") c #A5A1A0",
"_ c #A5A5A3",
"` c #A6A5A3",
"' c #A6A4A5",
"] c #A7A6A4",
"[ c #AAA9A7",
/* pixels */
"[```````````````````````````````````````````````````````````````````````````````````````````````````",
"`TTTTTTTTTTTTTTTTTTTTTTTTTTTTTTTTTTTTTTTTTTTTTTTTTTTTTTTTTTTTTTTTTTTTTTTTTTTTTTTTTTTTTTTTTTTTTTTTTTT",
"`TTTTTTTTTTTTTTTTTTTTTTTTTTTTTTTTTTTTTTTTTTTTTTTTTTTTTTTTTTTTTTTTTTTTTTTTTTTTTTTTTTTTTTTTTTTTTTTTTTT",
"`TTTTTTTTTTTTTTTTTTTTTTTTTTTTTTTTTTTTTTTTTTTTTTTTTTTTTTTTTTTTTTTTTTTTTTTTTTTTTTTTTTTTTTTTTTTTTTTTTTT",
"`TTTTTTTTTTTTTTTTTTTTTTTTTTTTTTTTTTTTTTTTTTTTTTTTTTTTTTTTTTTTTTTTTTTTTTTTTTTTTTTTTTTTTTTTTTTTTTTTTTT",
"`TTTTTTTTTTTTTTTTTTTTTTTTTTTTTTTTTTTTTTTTTTTTTTTTTTTTTTTTTTTTTTTTTTTTTTTTTTTTTTTTTTTTTTTTTTTTTTTTTTT",
"`TTTTTTTTTTTTTTTTTTTTTTTTTTTTTTTTTTTTTTTTTTTTTTTTTTTTTTTTTTTTTTTTTTTTTTTTTTTTTTTTTTTTTTTTTTTTTTTTTTT",
"`TTTTTTTTTTTTTTTTTTTTTTTTTTTTTTTTTTTTTTTTTTTTTTTTTTTTTTTTTTTTTTTTTTTTTTTTTTTTTTTTTTTTTTTTTTTTTTTTTTT",
"`TTTTTTTTTxffffffffffS(TTTTTTTTTTTTTTTTTTTTTTTTTTTTTTTTTTTTTTTTTTTTTTa5555555555NTTTTTTTTTTTTTTTTTTT",
"]TTTTTTT(Ti88888:888efTTTTTTTTTTTTTTTTTTTTTTTTTTTTTTTTTTTTTTTTTTTTTTSO*OOOOOOOOO5TTTTTTTTTTTTTTTTTTT",
"`TTTTTTTTTe8888e88888fTTTTTTTTTTTTTTTTTTTTTTTTTTTTTTTTTTTTTTTTTTTTTTSOO*OOOOOOOO5TTTTTTTTTTTTTTTTTTT",
"`TTTTTTTTT88888888888fTTTTTTTTTTTTTTTTTTTTTTTTTTTTTTTTTTTTTTTTTT(TTTSOOOOOOOOOOO5TTTTTTTTTTTTTTTTTTT",
"`TTTTTTTTT88888888888fTTTTTTTTTTTTTTTTTTTTTTTTTTTTTTTTTTTTTTTTTTTT(TSOOOOOOOOOOO5TTTTTTTTTTTTTTTTTTT",
"`TTTTTTTTTSfxSxSxxxxxJTTTTTTTTTTTTTTTTTTTTTTTTTTTTTTTTTTTTTTTTTTTTTTTfaaaaaaaaaaBTT(TTTTTTTTTTTTTTTT",
"`TTTTTTTT(TTTTTTT(TTTTTTTTTTTTTTTTTTTTTTTTTTTTTTTTTTTTTTTTTTTTTTTTTTTT(TTTTTTTTTTTTTTTTTTTTTTTTTTTTT",
"`Ta5858555555JT(TTTTTTTTTTTTTTTTTTTTTTTTTTTTTTTTTTTTTTTTTTTTTTTTTT((TTTTTTTTTTTTTTTTTT(TTTTTTTTTTTTT",
"]v*O*OOOOOOO.5TTTTTTTTTTTTTTTTTTTTTTTTTTTTTTTTTTTTTTTTTTTTTTTTTTTTTTTTTTTTTTTTTTTTTTTTTTTTTTTTTTTTTT",
"`fOOOOOOOOOOO5TTTTTTTTTTTTTTTTTTTTTTTTTTTTTTTTTTTTTTTTTTTTTTTTTTTTTTTTTTTTTTTTTTTTTTTTTTTTTTTTTTTTTT",
"]fO*.O.OOOOOO5TTTTTTTTTTTTTTTTTTTTTTTTTTTTTTTTTTTTTTTTTTTTTTTTTTTTTTTTTTTTTTTTTTTTTTTTTTTTTTTTTTTTTT",
"`SOOOOOOOO.OO5TTTTTTTTTTTTTTTTTTTTTTTTTTTTTTTTTTTTTTTTTTTTTTTTTTTTTTTTTTTTTTTTTTTTTTTTTTTTTTTTTTTTTT",
"`J8555555555aBTTTTTTTTTTTTTTTTTTTTTTTTTTTTTTTTTTTTTTTTTTTTTTTTTTTTTTTTTTTTTTTTTTTTTTTTTTTTTTTTTTTTTT",
"`TTTTTTTTTTTTTTTTTTTTTTTTTTTTTTTTTTTTTTTTTTTTTTTTTTTTTTTTTTTTTTTTTTTTTTTTTTTTTTTTTTTTTTTTTTTTTTTTTTT",
"`TTTTT(T(TTTTTTTTTTTTTTTTTTTTTTTTTTTTTTTTTTTTTTTTTTTTTTTTTTTTTTTTTTTTTTTTTTTTTTTTTTTTTTTTTTTTTTTTTTT",
"`TTTTT(TTTTTTTTTTTTTTTTTTTTTTTTTTTTTTTTTTTTTTTTTTTTTTTTTTTTTTTTTTTTTTTTTTTTTTTTTTTTTTTTTTTTTTTTTTTTT",
"`TTTTTTTTTTTTTTTTTTTTTTTTTTTTTTTTTTTTTTTTTTTTTTTTTTTTTTTTTTTTTTTTTTTTTTTTTTTTTTTTTTTTTTTTTTTTTTTTTTT",
"`TTTTTTTTTTTTTTTTTTTTTTTTTTTTTTTTTTTTTTTTTTTTTTTTTTTTTTTTTTTTTTTTTTTTTTTTTTTTTTTTTTTTTTTTTTTTTTTTTTT",
"`TTTTTTTTTTTTTTTTTTTTTTTTTTTTTTTTTTTTTTTTTTTTTTTTTTTTTTTTTTTTTTTTTTTTTTTT(TTTTTTTTTTTTTTTTTTTTTTTTTT",
"`TTTTTTTTTTTTTTTTTTTTTTTTTTTTT(TTTTTTTTTTTTTTTTTTTTTTTTTTTTTTTTTTTTTTTTTTTTTTT(TTTTTTTTTTTTTTTTTTTTT",
"`TTTTTTTTTTTTTTTTTTTTTTTTTTT(TTTTTTTTTTTTTTTTTTTTTTTTTTTTTTTTTTTTTTTTTTTT(TTTTTTTTTTTTTTTTTTTTTTTTTT",
"`TTTTTTTTTTTTTTTTTTTTTTTTTTTTTTTTTTTTTT(TTTTTTTTTTTTTTTTTTTTTTTTTTTTTTTTTTTTTTTTTTTTTTTTTTTTTTTTTTTT",
"`TTTTTTTTTTTTTTTTTTTTTTTTTTJJJJJTJJTTTTTTTTTTTTTTTTTTTTTTTTTTTTTTTTTTTTTTTTTTJJJJJJJJJJTTTTTTTTTTTTT",
"`TTTTTTTTTTTTTTTTTTTTTTTTT5***********JWTTTTTTTTTTTTTTTTTTTTTTTTTTTTTTTTTTTW***********,TTTTTTTTTTTT",
"`TTTTTTTTTTTTTTTTTTTTTTTTT*OOOOOOOOOOOTTTTTTTTTTTTTTTTTTTTTT((TTTTTTTTT(TTTJ*OOOOOOOOOO*JTTTTTTTTTTT",
"`TTTTTTTTTTTTTTTTTTTTTTTTT*O.OOOOOO.OOT(TTTTTTTTTTTTTTTTTTTTTTTTTTTTTTTTTTTJ*O.OOOO.OOO*TTTTTTTTTTTT",
"`TTTTTTTTTTTTTTTTTTTTTTTTT*OOOOOOOOOOOTTTTTTTTTTTTTTTTTTTT(TTTTTTTTTTTTTTTTJ*OOOOO.OOOO*TTTTTTTTTTTT",
"`TTTTTTTTTTTTTTTTTTTTTTTTT8O.OO.OOOOO,TTTTTTTTTTTTTTTTTT(TTTTTTTTTTT(TT(TTT(,OO.OOOOOOO8TTTTTTTTTTTT",
"`TTTTTTTTTTTTTTTTTTTTTTT(TTBJBBBBBBBBTT(TTTTTTTTTTTTTTTT(TTTTTTTTTTTTTTTTTTTTBBBBBBBBBTTTTTTTTTTTTTT",
"`TTTTTTTTTTTTTTTTTTTTTTTTTTTTTT(TTTTTTTTTTTTTTTTTTTTTTTTTN8*********,TTTTTTTTTTTTTTTZeee8eeee8eCTTTT",
"`TTTTTTTTTTTTTTTTTTTTTTTTTTTTTTTTTT(TTTTTTTTTTTTTTTTTTTTTyOOOOOO*OOOOfTTTT(TTTTTTTTTe8888:88888eTTTT",
"`TTTTTTTTTTTTTTTTTTTTTTTTTTTTTTTTTTTTTTTTTTTTTTTTTTTTTTTT5O#OOOOOOOOOfTTTTTTTTTTTTTT:888888:888eTTTT",
"`TTTTTTTTTTTTTTTTTTTTTTTTTTTTTTTTTTTTTTTTTTTTTTTTTTTTTTTT6O#OOOOOOOOOfTTTTTTTTTT(TTT8e8888888e8eTTTT",
"`TTTTTTTTTTTTTTTTTTTTTTTTTTTTTTTTTTTTTTTTTTTTTTTTTTTTTTTTaO.OOOOOO.O.STTTTTTTTTTTTTT::8:8:8:888fTTTT",
"`TTTTTTTTTTTTTTTTTTTTTTTTTTTTTTTTTTTTTTTTTTTTTTTTTTTTTTTTJffffffffffv)TTTTTTTTTTTTTTWSxSSSSSSSSWTTTT",
"`TTTTTTTTTTTTTTTTTTTTTTTTTTTTTTTTTTTTTTTTTTTTTTTTTTTTTTTTTTTTTTTTTTTTTTTTTTTTTTTTTTTTTTTTTTTTTTTTTTT",
"`TTTTTTTTTTTTTTTTTTTTTTTTTTTTTTTTTTTTTTTTTTTTTTTTTTTTTTTTTTTTTTTTTTTTTTTTTTTTTTTTTTTTTTTTTTTTTTTTTTT",
"`TTTTTTTTTTTTTTTTTTTTTTTTTTTTTTTTTTTTTTTTTTTTTTTTTTTTTTTTTTTTTTTTTTTTTTTTTTTTTTTTTTTTTTTTTTTTTTTTTTT",
"`TTTTTTTTTTTTTTTTTTTTTTTTTTTTTTTTTTTTTTTTTTTTTTTTTTTTTTTTTTTTTTTTTTTTTTTTTTTTTTTTTTTTTTTTTTTTTTTTTTT",
"`TTTTTTTTTTTTTTTTTTTTTTTTTTTTTTTTTTTTTTTTTTTTTTTTTTTTTTTTTTTTTTTTTTTTTTTTTTTTTTTTTTTTTWTTTTTTTTTTTTT",
"`TTTTTTTTTTTTTTTTTTTTTTTTTTTTTTTTTTTTTTTTTTTTTTTTTTTTTTTTTTTTTTTTTTTTTTTTTTTTTTTTTTTTTTTTTTTTTTTTTTT",
"`TTTTTTTTTTTTTTTTTTTTTTTTTTTTTTTTTTTTTTTTTTTTTTTTTTTTTTTTTTTTTTTTTTTTTTTTTTTTTTTTTTTTTTTTTTTTTTTTTTT",
"`TTTTTTTTTTTTTTTTTTTTTTTTTTTTTTTTTTTTTTTTTTTTTTTTTTTTTTTTTTTTTTTTTTTTTTTTTTTTTTTTTTTTTTTTTTTTTTTTTTT",
"`TTTTTTTTTTTTTTTTTTTTTTTTTTTTTTTTTTTTTTTTTTTTTTTTTTTTTTTTTTTTTTTTTTTTTTTTTTTTTTTTTTTTTTTTTTTTTTTTTTT",
"`TTTTTTTTTTTTTTTTTTTTTTTTTTTTTTTTTTTTTTTTTTTTTTTTTTTTTTTTTTTTTTTTTTTTTTTTTTTTTTTTTTTTTTTTTTTTTTTTTTT",
"`TTTTTTTTTTTTTTTTTTTTTTTTTTTTTTTTTTTTTTTTTTTTTTTTTTTTTTTTTTTTTTTTTTTTTTTTTTTTTTTTTTTTTTTTTTTTTTTTTTT",
"`TTTTTTTTTTTTTTTTTTTTTTTTTTTTTTTTTTTTTTTTTTTTTTTTTTTTTTTTTTTTTTTTTTTTTTTTTTTTTTTTTTTTTTTTTTTTTTTTTTT",
"`TTTTTTTTTTTTTTTTTTTTTTTTTTTTTTTTTTTTTTTTTTTTTTTTTTTTTTTTTTTTTTTTTTTTTTTTTTTTTTTTTTTTTTTTTTTTTTTTTTT",
"`TTTTTTTTTTTTTTTTTTTTT(TTTT(TTTTTTTTTTT(TTTTTTTTTTTTTTTTTTTTTTTTTTTTTTTTTTTTTTTTTTTTTTTTTTTTTTTTTTTT",
"`TTTTTTTTTTTTTTTTT((TTTTTTTTTTTTTTTTTT(TTTTTTTTTTTTTTTTTTTTTTTTTTTTTTTTTTTTTTTTTT(TTTTTTTTTTTTTTTTTT",
"`TTTTTTTTTTTTTTTTTTTTTTTT(TTTTTTTTTTTTTTTTTTTTTTTTTTTTTTTTTTTTTTTTTTTTTTTTTTTTTTTTTTT(TTTTTTTTTTTTTT",
"`TTTTTTTTTTTTTTTTTTTTTTT(TJJJJBJJBJJJTT(TTTTTTTTTTTTTTTTTTTTTTTTTTTTTTTT(TTJJJJJBJJJJTT(TTTTTTTTTTTT",
"`TTTTTTTTTTf88::888888eWTS***O*******fTTTTTTTTTTTTTTTTTTTTTTTTTTTTTTTTTTTW***********,TTTTTTTTTTTTTT",
"`TTTTTTTTTTe888e8:88888JTfOOOOOOOOOOO5TTTTTTTTTTTTTTTTTTTTTTTTTTTTTTTTTTTJ*OOOOOOOOOO*TTTTTTTTTTTTTT",
"`TTTTTTTTTTeee8:888e888T(foOO*O*OOOOO5TTTTTTTTTTTTTTTTTTTTTTTTTTTTTTTTTTTJOOOOO.OOOOO*TTTTTTTTTTTTTT",
"`TTTTTTTTTTe8e::8e8:8e8J(foOOOOOOOOOO5TTTTTTTTTTTTTTTTTTTTTTTTTTTTTTTTTTTJ*OOOOOOOOOO*TTTTTTTTTTTTTT",
"`TTTTTTTTTWf88888:8:e8eWWS*OOOOOOOOOOvWWTTTTTTTTTTTTTTTTTTTTTTTTTTTTTTTTTT5.OOOOOOOOO8JWTTTTTTTTTTTT",
"`TTTTTTTTTTTWWWWWWWWWWWWTTTTTTTJTTTTTTTTTTTTTTTTTTTTTTTTTTTTTTTTTTTTTTTTTTTTTTTTTTTTTTTTTTTTTTTTTTTT",
"`TTTTTTTTTTTTTTTTTTTTTT(TTTTTTTTTTTTTTTTTTTTTTTTTTTTTTTTTTTTTTTTTTTTTTTTTTTTTTTTTTTTTTTTTTTTTTTTTTTT",
"`TTTTTTTTTTTTT(TTTTTTTTTTTTTTTTTTTTTTTTTTTTTTTTTTTTTTTTTTTTTTTTTTTTTTTTTTTTTTTTTTT(TTTTTTTTTTTTTTTTT",
"`TTTTTTTTTTTTTTT(TTTTTTTTTTTTTTTTTTTTTTTTTTTTTTTTTTTTTTTTTTTTTTTTTTTTTTTTTTTTTTTTTTTTTTTTTTTTTTTTTTT",
"`TTTTTTTTTTTTTT(TTTTTTTTTTTTTTTTT(TTTTTTTTTTTTTTTTTTTTTTTTTTTTTTTTTTTTTTTTTTTTTTTTTTTTTTTTTTTTTTTTTT",
"`TTTTTTTTTTTTTTTTTTTTTTTTTTTTTTTTTTTTTTTTTTTTTTTTTTTTTTTTTTTTTTTTTTTTTTTTTTTTTTTTTTTTTTTTTTTTTTTTTTT",
"`TTTTTTTWTTTTTTTTTTTTTTTTTTTTTTTTTTTTTTTTTTTTTTTTTTTTTTTTTTTTTTTTTTTTTTTTTTTTTTTTTTTTTTTTTTTTTTTTTTT",
"`TTTTTTTTTTTTTTTTTTTTTTTTTTTTTTTTTTTTTTTTTTTTTTTTTTTTTTTTTTTTTTTTTTTTTTTTTTTTTTTTTTTTTTTTTTTTTTTTTTT",
"`TTTTTTTTTTTTTTTTTTTTTTTTTTTTTTTTTTTTTTTTTTTTTTTTTTTTTTTTTTTTTTTTTTTTTTTTTTTTTTTTTTTTTTTTTTTTTTTTTTT",
"`TTTTTTTTTTTTTTTTTTTTTTTTTTTTTTTTTTTTTTTTTTTTTTTTTTTTTTTTTTTTTTTTTTTTTTTTTTTTTTTTTTTTTTTTTTTTTTTTTTT",
"`TTTTTTTTTTTTTTTTTTTTTTTTTTTTTTTTTTTTTTTTTTTTTTTTTTTTTTTTTTTTTTTTTTTTTTTTTTTTTTTTTTTTTTTTTTTTTTTTTTT",
"`TTTTTTTTTTTTTTTTTTTTTTTTTTTTTTTTTTTTTTTTTTTTTTTTTTTTTTTTTTTTTTTTTTTTTTTTTTTTTTTTTTTTTTTTTTTTTTTTTTT",
"`TTTTTTTTTTTTTTTTTTTTTTTTTTTTTTTTTTTTTTTTTTTTTTTTTTTTTTTTTTTTTTTTTTTTTTTTTTTTTTTTTTTTTTTTTTTTTTTTTTT",
"`TTTTTTTTTTTTTTTTTTTTTTTTTTTTTTTTTTTTTTTTTTTTTTTTTTTTTTTTTTTTTTTTTTTTTTTTTTTTTTTTTTTTTTTTTTTTTTTTTTT",
"`TTTTTTTTTTTTTTTTTTTTTTTTTTTTTTTTTTTTTTTTTTTTTTTTTTTTTTTTTTTTTTTTTTTTTTTTTTTTTTTTTTTTTTTTTTTTTTTTTTT",
"`TTTTTTTTTTTTTTTTTTTSSSSSSSSSSTTTTTTTTTTTTTTTTTTTTSJSSSSSSSSTTTJSSSSSSSSSSTTTTTTTTTTTTTT(TTTTTTTTTTT",
"]TTTTTTTTTTTTTTTTTT*OO*OOOOOOO5TTTTTTTTTTTTTTTTTJ88888888888STT*OOOOOOOO.O5TTTT(TTTTTTTTTTTTTTTTTTTT",
"`TTTTTT(TTTTTTTTTWS*OOOOOOO*OO5TTTTTTTTTTTTTTTTTS8e8e8888888CTS*OOOOOOOO@O5TTTTTTTTTTTTT(TTTTTTTTTTT",
"`TTTTTTTTTTTTTTTTTSO.OOOOOOOO*5TTTTTTTTTTTTTTTTTS:8888888888fTS.OOOOOOO*OO5TTTTTTTTTTTTTTTTTTTTTTTTT",
"`TTTTTTTTTTTTTTTTTSOOOOOOOOOOO*TTTTTTTTTTTTTTTTTN88888888888fTSOOOOOOOO*OO*TTTTTTTTTTTTTTTTTT((TTTTT",
"`TTTTTTTTTTTTTTTT(S*OOO.@OOOOOfWTTTTTTTTTTTTTTTTTi888888:88eSTJ*OOOOOOO*O%cTTTTTTTTTTTTTTTTTTTTTTTTT",
"]TTTTTTTTTTTTTTT(TTTTTTTTTTTTTTTTTTTTTTTTTTTTTTTTTWWWWWWWWWWTTTJTTTTTTTTTTTTTTTTTTTTTTTTTTTTTTTTTTTT",
"55555aTTTTTTTTTTTTTTTTTTTT(TTTTTTTTTTTTTTTTTTTTT(T(TTTa5555555555JTTTT(TTTTTTTTTTTTTTTTTT(TTTTv55555",
"O*#O**TTTTTTTTTTTTTTTTTTTTTTTTTTTTTTTTTTTTTTTTTTTTTTTv*OOOOOOOOO@5TTT(TTTTTTTTTTTTTTTTTTTTTTTT*@OOOO",
"OOOOOOJTTTTTTTTTTTTTTTTTTTTTTTTTTTTTTTTTTTTTTTTT(TTTTvOOOOOOOOOO@5TTTTTTTTTTTTTTTTTTTTTTTTTTTT*OOOOO",
"OOOOOOTTTTTTTTTTTTTTTTTTTTTTTTTTTTTTTTTTTTTTTTTTTTTTTf.OOOOOOOOOO5TTTTTTTTTTTTTTTTTTTTTTTTTTTT*OOOOO",
"OOOOOOTTTTTTTTTTTTTTTTTTTTTTTTTTTTTTTTTTTTTTTTTTTTTTTSOOOOOOOOOOO6TTTTTTTTTTTTTTTTTTTTTTTTTTTT%OOOOO",
"aaaaaNTTTTTTTTTTTTTTTTTTTTTTTTTTTTTTTTTTTTTTTTTTTTTTTSfaaaaaaaaayTTTTTTTTTTTTTTTTTTTTTTTTTTTTTBaaaaa",
"`TTTTTTTTTTTTTTTTTTTTTTTTTTTTTTTTTTTTTTTTTTTTTTTTTTTTTTTTTTTTTTTTTTTTTTTTTTTTTTTTTTTTTTT(TTTTTTTTTTT",
"`TTTTTTTTTTTTTTTTTTTTTTTTTTTTTTTTTTTTTTTTTTTTTTTTTTTTTTTTTTTTTTTTTTTTTTTTTTTTTTTTTTTTTTTTTTTTTT(TTTT",
"`TTT(TTTTTTTTTTTTTTTTTTTTTTTTTTTTTTTTTTTTTTTTTTTTTTTTWWTTTTTTTTTTTTTT(TTTTTTTTTTTTTTTTTTTTTTTTTTTTTT",
"`TTTTTTTTTTTTTTTTTTTTTTTTTTTTTTTTTTTTTTTTTTTTTTTTTTTTTTTTTTTTTTTTTTTTTTTTTTTTTTTTTTTTTTTTTTTTTTTTTTT",
"`TTTTTTTTTTTTTTTTTTTTTTTTTTTTTTTTTTTTTTTTTTTTTTTTTTTTTTTTTTTTTTTTTTTTTTTTTTTTTTTTTTTTTTTTTTTTTTTTTTT",
"`TTTTTTTTTTTTTTTTTTTTTTTTTTTTTTTTTTTTTTTTTTTTTTTTTTTTTTTTTTTTTTTTTTTTTTTTTTTTTTTTTTTTTTTTTTTTTTTTTTT",
"`TTTTTTTTTTTTTTTTTTTTTTTTTTTTTTTTTTTTTTTTTTTTTTTTTTTTTTTTTTTTTTTTTTTTTTTTTTTTTTTTTTTTTTTTTTTTTTTTTTT"
};
