/* XPM */
static char *a4ce03172e50464bb8ec9e826399b7e9ZlQqTs1BpJnKs4nQ[] = {
/* columns rows colors chars-per-pixel */
"100 100 4 1 ",
"  c #A2A19F",
". c #938F8C",
"X c #9B9792",
"o c #A09E9B",
/* pixels */
"                                                                                                    ",
"                                                                                                    ",
"                                                                                                    ",
"                                                                                                    ",
"                                                                                                    ",
"                                                                                                    ",
"                                                                                                    ",
"                                                                                                    ",
"          oXXXXXXXXXXo                                               XXXXXXXXXXXX                   ",
"          XXXXXXXXXXXX                                              o...........X                   ",
"          XXXXXXXXXXXX                                              o............                   ",
"         oXXXXXXXXXXXX                                              o............                   ",
"          XXXXXXXXXXXX                                              o............                   ",
"          oooXoXooXooo                                               oXXXXXXXXXXo                   ",
"                o  o                                                                                ",
" oXXXXXXXXXXXX                                                                                      ",
" o...........X                                                                                      ",
" o...........X                                                                                      ",
" o............                                                                                      ",
" o...........X                                                                                      ",
" oXXXXXXXXXXXo                                                                                      ",
"    o oooooo                                                                                        ",
"                                                                                                    ",
"                                                                                                    ",
"                                                                                                    ",
"                                                                                                    ",
"                                                                                                    ",
"                                                                                                    ",
"                                                                                                    ",
"                                                                                                    ",
"                           ooooooooooo                                      ooooooooooo             ",
"                          X...........o                                     X...........            ",
"                          ............o                                     ............            ",
"                          ............o                                     ............            ",
"                          ............o                                     ............            ",
"                          X..........Xo                                     X..........X            ",
"                          ooooooooooo                                       ooooooooooo             ",
"                                                         oX......X..Xo              oXXXXXXXXXXX    ",
"                                                         X...........X              XXXXXXXXXXXX    ",
"                                                         X...........X              XXXXXXXXXXXX    ",
"                                                         X...........X              XXXXXXXXXXXX    ",
"                                                         X...........X              XXXXXXXXXXXX    ",
"                                                          oXXXXXoXXXo               ooXooooooXo     ",
"                                                                                       o oo         ",
"                                                                                                    ",
"                                                                                                    ",
"                                                                                                    ",
"                                                                                                    ",
"                                                                                                    ",
"                                                                                                    ",
"                                                                                                    ",
"                                                                                                    ",
"                                                                                                    ",
"                                                                                                    ",
"                                                                                                    ",
"                                                                                                    ",
"                                                                                                    ",
"                                                                                                    ",
"                                                                                                    ",
"            ooooooooooo   oooooooooooo                                    oooooooooooo              ",
"           oXXXXXXXXXXXo o...........X                                   oX..........X              ",
"           XXXXXXXXXXXXo o...........X                                    ............              ",
"           XXXXXXXXXXXXo o...........X                                    ............              ",
"           XXXXXXX.XXXX  o...........X                                    ............              ",
"           oXXXXXXXXXXXo oX..........X                                    X..........X              ",
"           o ooooooooo    oooooooooo                                      ooooooooooo               ",
"                                                                                                    ",
"                                                                                                    ",
"                                                                                                    ",
"                                                                                                    ",
"                                                                                                    ",
"                                                                                                    ",
"                                                                                                    ",
"                                                                                                    ",
"                                                                                                    ",
"                                                                                                    ",
"                                                                                                    ",
"                                                                                                    ",
"                                                                                                    ",
"                                                                                                    ",
"                   oooooooooooo                   oooooooooo   oooooooooooo                         ",
"                  oX..........X                 oXXXXXXXXXXXo oX..........X                         ",
"                  o............                 oXXXXXXXXXXXX o............                         ",
"                  o............                 oXXXXXX.XXXXX o............                         ",
"                  o...........X                 oXXXXXXXXXXXX o............                         ",
"                  oX..X..X..X.X                  XXXXXXXXXXXo oX..X..X..X.X                         ",
"                   ooooooooooo                    oooo oooo    ooooooooooo                          ",
"XXXXXX                                               oXXXXX.X.XXXX                            oXXXXX",
"......o                                              o...........X                            ......",
"......o                                              o............                            ......",
"......o                                              o...........X                            ......",
"......o                                              o...........X                            X.....",
"XXXXXo                                                oXXXXXXXXXXo                            oXXXXX",
"                                                                                              o     ",
"                                                                                                    ",
"                                                                                                    ",
"                                                                                                    ",
"                                                                                                    ",
"                                                                                                    ",
"                                                                                                    "
};
