/* XPM */
static char *_a918bd811ab441bdd1f021787163295eXxv5xFaGwWnDhak[] = {
/* columns rows colors chars-per-pixel */
"140 30 182 2 ",
"   c #7F4B33",
".  c #824B33",
"X  c #8A4E35",
"o  c #834F39",
"O  c #865036",
"+  c #8C5336",
"@  c #8E5836",
"#  c #86523B",
"$  c #89543E",
"%  c #8E593A",
"&  c #97563B",
"*  c #9A573C",
"=  c #915B39",
"-  c #99583C",
";  c #A15C3F",
":  c #A95E3F",
">  c #966139",
",  c #9A663C",
"<  c #A9603F",
"1  c #8A5741",
"2  c #8C5A44",
"3  c #8F5F49",
"4  c #905C47",
"5  c #9F5C41",
"6  c #905D48",
"7  c #A35E40",
"8  c #AA5F40",
"9  c #92624D",
"0  c #9C6B43",
"q  c #956652",
"w  c #976953",
"e  c #986B56",
"r  c #9A6D5A",
"t  c #9D725D",
"y  c #A76042",
"u  c #AA6141",
"i  c #B17F44",
"p  c #A1765E",
"a  c #A57756",
"s  c #A17562",
"d  c #A47B65",
"f  c #A47C6A",
"g  c #A87F6A",
"h  c #B4834A",
"j  c #B78648",
"k  c #B0875B",
"l  c #B68A55",
"z  c #A68167",
"x  c #A98167",
"c  c #A6816E",
"v  c #AA836D",
"b  c #A68171",
"n  c #AB8572",
"m  c #AD8A74",
"M  c #AF8E7E",
"N  c #B28E76",
"B  c #B28E7A",
"V  c #B59176",
"C  c #B5927C",
"Z  c #B8957C",
"A  c #BC9A7F",
"S  c #C3924B",
"D  c #C9994D",
"F  c #C19753",
"G  c #D6AA57",
"H  c #E7BC5D",
"J  c #C7A67D",
"K  c #E2BA63",
"L  c #EDC35F",
"P  c #EDC666",
"I  c #F7D46B",
"U  c #FBD66B",
"Y  c #FEDA6E",
"T  c #E4C67D",
"R  c #F7D770",
"E  c #FEDD72",
"W  c #FDDF7D",
"Q  c #F4D47F",
"!  c #FEE17D",
"~  c #B08F80",
"^  c #B59481",
"/  c #B89582",
"(  c #BB9B85",
")  c #B59589",
"_  c #BB9C8C",
"`  c #BA9C91",
"'  c #BFA083",
"]  c #BFA18A",
"[  c #BEA293",
"{  c #C09E82",
"}  c #C1A285",
"|  c #C2A48C",
" . c #C6AA8D",
".. c #CEB18F",
"X. c #C2A591",
"o. c #C6AA93",
"O. c #CAAD95",
"+. c #C3AA9E",
"@. c #CAAF9A",
"#. c #CDB294",
"$. c #CCB39A",
"%. c #D1B496",
"&. c #D1B79A",
"*. c #D4BB9C",
"=. c #D7BD99",
"-. c #D6B788",
";. c #C4ACA0",
":. c #C3AFA8",
">. c #CBB6AD",
",. c #C9B1A5",
"<. c #D1B7A0",
"1. c #D4BCA2",
"2. c #D4BEA9",
"3. c #CAB7B1",
"4. c #CDBAB2",
"5. c #CCBCBC",
"6. c #D1BBB2",
"7. c #D8C19E",
"8. c #E7CD92",
"9. c #F6DE94",
"0. c #F4D98A",
"q. c #FEE281",
"w. c #FBE49A",
"e. c #FDE492",
"r. c #D7C2A5",
"t. c #DBC4A4",
"y. c #DFC9A4",
"u. c #DAC4A9",
"i. c #DECAAC",
"p. c #D6C4BD",
"a. c #E1CBA6",
"s. c #E2CDAB",
"d. c #E5D1AC",
"f. c #E9D5AD",
"g. c #E1CDB2",
"h. c #E6D3B3",
"j. c #E9D6B4",
"k. c #EDDBB5",
"l. c #EEDDBA",
"z. c #F0DEB6",
"x. c #F0DEB9",
"c. c #F9E6A2",
"v. c #EEE0BD",
"b. c #F2E1B6",
"n. c #F8E8B5",
"m. c #F4E4BB",
"M. c #F8E7BA",
"N. c #F7E9BD",
"B. c #F9EBBE",
"V. c #FDF2BE",
"C. c #D6C7C0",
"Z. c #D8C7C0",
"A. c #DBCAC4",
"S. c #D7C9C8",
"D. c #E1D4CD",
"F. c #E1D1C1",
"G. c #E5DBD5",
"H. c #E7DED9",
"J. c #E8DDD9",
"K. c #E3D6D0",
"L. c #FCEEC1",
"P. c #F6EBCF",
"I. c #F6EAC2",
"U. c #FEF0C1",
"Y. c #EAE1DC",
"T. c #F1E6D0",
"R. c #F1EAD8",
"E. c #EBE4E3",
"W. c #EEE9E5",
"Q. c #F3EEEB",
"!. c #F2EDEC",
"~. c #F3EFED",
"^. c #F5EFE3",
"/. c #F1EFF0",
"(. c #F5F2F1",
"). c #F9F6F5",
"_. c #FAF9F7",
"`. c #FDFDFD",
"'. c #FFFFFD",
"]. c white",
"[. c #FEFFFF",
"{. c #FFFFFE",
/* pixels */
"u u u u u u u u u u u u u u u u u u u u u u u u u u u u u u u u u u u u u u u u u u u u u u u u u u u u u u u u u u u u u u u u u u u u u u u u u u u u u u u u u u u u u u u u u u u u u u u u u u u u u u u u u u u u u u u u u u u u u u u u u u u u u u u u u u u u u u u u u u u u ",
"u u ; ; ; ; ; ; 5 ; ; ; ; ; ; ; ; ; ; ; ; ; ; ; ; ; ; ; ; ; ; ; ; ; ; ; ; ; ; ; ; ; ; ; ; ; ; ; ; ; ; ; ; ; ; ; ; ; ; ; ; ; ; ; ; ; ; ; ; ; ; ; ; ; ; ; ; ; ; ; ; ; ; ; ; ; ; ; ; ; ; ; ; ; ; ; ; ; ; ; ; ; ; ; ; ; ; ; ; ; ; ; ; ; ; ; ; ; ; ; ; ; ; ; ; ; ; ; ; ; ; ; ; ; ; ; 7 ; y u ",
"8 * X . $ 6 9 q q q q q q w q q q q q q q q q q q q q q q q q q q q q q q q q q q q q q q q q q q q q q q q q q q q q q q q q q q q q q q q q q q q q q q q q q q q q q q q q q q q q q q q q q q q q q q q q q q q q q q q q q q q q q q q q q q q q q q q q q q q q q q 9 2 # o X - u ",
"u X o e ` A.E.(._.Q.Y.Y.Y.Y.Y.Y.Y.Y.Y.Y.Y.Y.Y.Y.Y.Y.Y.Y.Y.Y.Y.Y.Y.Y.Y.Y.Y.Y.Y.Y.Y.Y.Y.Y.Y.Y.Y.Y.Y.Y.Y.Y.Y.Y.Y.Y.Y.Y.Y.Y.Y.Y.Y.Y.Y.Y.Y.Y.Y.Y.Y.Y.Y.Y.Y.Y.Y.Y.Y.Y.Y.Y.Y.Y.Y.Y.Y.Y.Y.Y.Y.Y.Y.Y.Y.Y.Y.Y.Y.Y.Y.Y.Y.Y.Y.Y.Y.Y.Y.Y.Y.Y.Y.Y.Y.Y.Y.Y.Y.Y.Y.Y.Y.Y.Y.Y.Y.Y.Y.E.)._.~.G.4.m 2 . X y ",
"u o w p.`.`.`.`.E.^ # . . . . . . . . . . . . . . . o . . . . o o . . . . o . . . . . . . o . . . . . . . . . . . . . . . . . . . . . . . . . . . . . . . . . . . . . . . . . . . . . . . . . . . . . . . . . . . . . . . . . . . . . . . . . . . . . . . . . . . 9 6._.`.`.`.~._ $ . y ",
"u o _ ~.`.`.`.`.,.2 . . . . . . . . . . . . . . . . . . . . . o . . . . . . . o . . . . . . . . . . . . . . . . . . . . . . . . . . . . . . . . . . . . . . . . . . . . . . . . . . . . . . . . . . . . . . . . . . . . . . . . . . . . . . . . . . . . . . . .   . b G.`.`.`.`.Z.r . u ",
"u o ;.`.`.`.`.`._ . . . . . . . . . . . o # 2 t . . . . . . . . . . . . . . . . . . . . . .   . . . . . . . . . . . . . . . . . . . . . . . . . . . . . . . . . . . . . . . . . . . . . . . . . . . . . . . . . . . . . . . . . . . . . . . . . . . . . . . . . o . r A.`.`.`.`.G.f . u ",
"u o ;.`.`.`.`.`.`   . . . . .   .   . X r ) >.S.4.r . . . . o X # $ # # # # #   . o X # X o . . . . . . . . . . . . . . . . . . . . . . . . . . . . . . . . . . . . . . . . . . . . . . . . . . . . . . . . . . . . . . . . . . . . . . . . . . . . . . . . . . . . e A.`.`.`.`.J.c . u ",
"u o +.`.`.`.`.`._ o o o . . . . . . . $ m W.~./.E.3.b 1 . . $ 9 r t r q w w 9 1 o $ 3 q 3 $ . . . . . . . o . . . . . . . . o o o O o . . . . . . . . . . . . o . . . . . o . . . . . o o o o . . . . . . . .   . . . . . . . . . . . . .   o . . . . . . . . . . . e Z.`.`.`.`.J.c . < ",
"u o +.`.`.`.`.`._ o . o   .   . . . . = J T.^.Q.~.(.S.f # # e #.b.b.d.*.y.f.#.s 2 9 A j.#.9 o o X o # # X o o o # # # # o o # 2 e 9 1 # o o # o o o . X o # o X X o X O $ # O # o X # 4 e 2 $ # # # # o o o o o # # o o o o # # # o . o # # o o . . . . . . . . . . e Z.`.`.`.`.J.c . u ",
"u . +.`.`.`.`.`._ . . . o . . . . . X 0 T N.I.M.P.Q.E.5.9 # 9 | M.M.1.m o.b.N.*.w s &.B.d.t 1 1 6 q q q 9 2 $ 2 q r r q q q 9 r '  .f e 9 9 q 9 2 # 2 3 q q q 9 9 6 3 q r r q q 9 3 2 d #.m t e q q q 3 1 1 3 9 q q 9 3 $ 1 q r q 2 # 3 q e q $ o . . . . . . . . . e p.`.`.`.`.J.c . u ",
"u . ;.`.`.`.`.`._ . . . .   . . . . O l 8.n.w.! c.R.G.:.w o 3 | I.M.O.d ( x.L.y.t n h.V.b.Z q v #.7.*.y.*.v e N d.b.f.*.7.*.( c O.h.k.y.#.#.=.a.V w v #.*.*.y. .| ..N r.b.k.*.=.7.| s m u.s.k.f.*.%.a.=.e d | r.&.r.y.Z w d 7.b.s.v 9 V d.z.=.t # . . . . . . . . . e p.`.`.`.`.J.c . u ",
"u o ;.`.`.`.`.`._ . . . . . . . o . + l 9.w.q.E W 0.-.p $ X 2 _ M.M.@.f X.N.b.| w f u.L.k.m B h.k.| m O.b.s.n / j.B.s./ #.m.l.] o.m.b._ d s v { Z C s.d.C N &.N.z.o.B u.U.k./ | k.b.O.v o.b.z.| v d N } m t.b.&.B | j.j.Z n u.L.j.d 9 B k.M.1.e # . .   . . . . . . e Z.`.`.`.`.J.c . u ",
"u o ;.`.`.`.`.`._ . . . + + . . . . + F I ! E E Y P h % . o 3 ] N.M.<.O.j.M.g.^ t d r.L.j.^ <.L.l.B f _ k.N.O./ j.B.u.n | m.N.1.&.L.l.n 9 1 3 q n r.N.r.s r | N.N._ n u.L.j.n / j.M.y.C u.M.i.s 3 1 6 t | M.N.X.f C s.M.r.m u.L.j.d 9 N k.M.1.q # . . . X + . . . . e Z.`.`.`.`.J.c . u ",
"u o ;.`.`.`.`.`._ . . X 7 ; + . . . + F R Y Y U L S > . . X 6 ] I.M.1.o.*.j.N.k.| n r.L.j._ h.U.m.*.%.*.j.k.#./ j.B.i.m O.M.b.X.$.U.N.X.e 1 $ 2 B k.N.O.q 9 ( N.N.( v r.L.k.M _ x.M.&._ x.M.$.q # o $ r &.U.M.t.%.*.s.b.y.n u.L.m.C w N j.M.&.q o o . . - ; & . o . e A.`.`.`.`.J.c . u ",
"u o ;.`.`.`.`.`._ . . . + + . . . . , G E Y U H j > X . . o 3 ] L.I.$.f d | l.L.a.m u.U.j.[ j.L.j.B d d n n d C h.B.h.<.j.j.| d ( b.L.b.o.t 3 3 Z m.M.$.q 9 ( N.N.( v r.L.l.$.s.z.$.n ( m.N.O.q # # 1 t 1.U.m./ d d v m f f u.U.L.i.f / k.M.1.q o . . . + & X . o o e A.`.`.`.`.J.c . u ",
"u o ;.`.`.`.`.`.` . . . . . . . . % h R E U G i = . . . . o 3 _ B.M.O.q q m h.L.s.m u.L.j.( u.L.h.f 9 q e q q m j.B.v.m.N.<.f 9 t O.m.L.N.t.n e Z k.B.u.t e | M.N._ n u.L.N.j.N.i.n e m j.M.&.w 2 q s s O.L.b.m q 9 w w q d t.U.L.b.O.[ l.M.1.q o . . . o . . . . . e p.`.`.`.`.J.b . u ",
"u o ;.`.`.`.`.`._ . . . . . . . = j K E Y L j O . . . . . o 2 ( B.N.O.t r C j.b.o.n u.L.j.m | b.k.B t n =.#.t m j.B.j.u.M.f.m 9 3 s o.k.U.B.k.] n 1.L.x.( n &.N.N.| n u.L.l.2.b.x.( e t #.M.s.f s | f.( C j.m.| t f #.=.d d r.U.m.u.j.i.l.M.1.q # . . . . . . . . . e Z.`.`.`.`.J.b . u ",
"u o ;.`.`.`.`.`._ . . . . . . $ k P E E Y G , . . . . . . o $ v j.m.a. . .a.a.o.s n a.U.k.m t ( a.7.#.y.y.V e Z k.B.h._ *.z.a.x q f ( _ i.M.L.j.m m *.b.z.y.%.O.d.=.Z s.V.k.| O.k.d.N q s O.s.&.*.d.%.s e C 7.y.#.7.d.} e v a.U.z.| | d.N.B.u.t # . . . . . . .   . e Z.`.`.`.`.J.c . u ",
"u o ;.`.`.`.`.`.` . . . . . . $ o.N.e.E I D + . . . . . . . # 9 d n g t t d d q 2 9 d B v 9 1 q p d s d p 9 1 q v B g e t v d q v d.a.n B u.L.N.( w t m m g t r d t e z B v r r v g 9 1 2 q d s d f r 1 $ 9 t d p d d q 1 9 d B n r e z B B s 2 o . . . . . . . . . e Z.`.`.`.`.J.c . u ",
"u o ;.`.`.`.`.`._ . . . . . . . o n F.M.Q S @ . . . . . . . o o $ $ $ $ $ $ $ o o O $ 1 $ # o o $ $ $ $ $ # o o $ 1 $ $ $ $ $ 1 z s.b.] n O.N.b.Z 2 # 1 1 $ $ $ $ $ $ # 1 $ $ $ $ # # o o O $ # $ # # o . X # $ $ $ $ # X # $ 1 1 $ # $ 1 1 $ X . . . . . . . . o . e C.`.`.`.`.J.c . u ",
"u o +.`.`.`.`.`._ . .   . . . . . . o N 2.a . . . . . . . . . . o . . o o o o . o   o o . . . . o o o o o . . . o o o . o o o # 9 m *.y.*.y.f.O.e # . . o o o . o . . . o o . . o o . . . . o o o o . . . . . o o o o . . o o . o . o . . o o . . . . . . . . . . . e A.`.`.`.`.H.c . u ",
"u . +.`.`.`.`.`.[ X . . . . . . . . . o . $ . o o . . . . . . . . . . . . .   o . . . . . . . . . . . . . . . . . . . . . . . o # 3 t d s d d q $ o . . o . . . . . . . . . o . . . . . . . o . . . . . . . . . . . . . . . . . . . . . . . .   . . . . . . . . o o t A.`.`.`.`.K.f . u ",
"u . m Y.`.`.`.`.6.e $ # $ $ $ $ $ $ # $ $ $ $ $ # $ # $ $ # # # $ # # # $ $ # $ $ $ # $ # # # # $ # # $ $ $ $ $ $ $ # $ $ $ # $ $ 1 1 2 2 3 2 1 # $ # $ $ $ $ $ $ $ # # # $ $ $ $ $ $ # $ $ $ # # # $ $ $ $ $ # # $ $ $ # $ $ $ $ $ $ $ $ $ $ $ $ $ $ $ $ $ $ $ $ # ^ Y.`.`.`._.6.q . u ",
"u . 1 [ Y.(._.`.~.>.~ M M M M M M M M M M M M M M M M M M M M M M M M M M M M M M M M M M M M M M M M M M M M M M M M M M M M M ~ ~ ~ ~ ~ ~ ~ ~ M M M M M M M M M M M M M M M M M M M M M M M M M M M M M M M M M M M M M M M M M M M M M M M M M M M M M M M M M ) D.`._.).Q.A.d . X : ",
"u X   X r [ p.D.H.Y.Y.Y.Y.Y.Y.Y.Y.Y.Y.Y.Y.Y.Y.Y.Y.Y.Y.Y.Y.Y.Y.Y.Y.Y.Y.Y.Y.Y.Y.Y.Y.Y.Y.Y.Y.Y.Y.Y.Y.Y.Y.Y.Y.Y.Y.Y.Y.Y.Y.Y.Y.Y.Y.Y.Y.Y.Y.Y.Y.Y.Y.Y.Y.Y.Y.Y.Y.Y.Y.Y.Y.Y.Y.Y.Y.Y.Y.Y.Y.Y.Y.Y.Y.Y.Y.Y.Y.Y.Y.Y.Y.Y.Y.Y.Y.Y.Y.Y.Y.Y.Y.Y.Y.Y.Y.Y.Y.Y.Y.Y.Y.Y.Y.Y.Y.Y.Y.Y.Y.Y.Y.G.A.4.M 3 . . X y ",
"u - X . . . . . . . . . . . . . . . . . . . . . . . . . . . . . . . . . . . . . . . . . . . . . . . . . . . . . . . . . . . . . . . . . . . . . . . . . . . . . . . . . . . . . . . . . . . . . . . . . . . . . . . . . . . . . . . . . . . . . . . . . . . . . . . . . . . . . . X - u ",
"u u - - - - * - - - - - - - - - - - - - - - - - - - - - - - - - - - - - - - - - - - - - - - - - - - - - - - - - - - - - - - - - - - - - - - - - - - - - - - - - - - - - - - - - - - - - - - - - - - - - - - - - - - - - - - - - - - - - - - - - - - - - - - - - - - - - - - - - * ; u u ",
"u u u u u u u < u u u u u u u u u u u u u u u u u u u u u u u u u u u u u u u u u u u u u u u u u u u u u u u u u u u u u u u u u u u u u u u u u u u u u u u u u u u u u u u u u u u u u u u u u u u u u u u u u u u u u u u u u u u u u u u u u u u u u u u u u u u u u u u u u u u u ",
"u u u u u u u u u u u u u u u u u u u u u u u u u u u u u u u u u u u u u u u u u u u u u u u u u u u u u u u u u u u u u u u u u u u u u u u u u u u u u u u u u u u u u u u u u u u u u u u u u u u u u u u u u u u u u u u u u u u u u u u u u u u u u u u u u u u u u u u u u u u u "
};
